<svg width="50" height="50" viewBox="0 0 50 50" fill="none" xmlns="http://www.w3.org/2000/svg">
<g clip-path="url(#clip0_23_137)">
<path d="M6.51875 2.79229C4.3375 4.08604 0.0421875 9.01728 0 10.311V12.4595C0 15.1704 2.53906 17.5642 4.84219 17.5642C7.60938 17.5642 9.92188 15.2688 9.92188 12.5438C9.92188 15.2688 12.1422 17.5642 14.9172 17.5642C17.6844 17.5642 19.8406 15.2688 19.8406 12.5438C19.8406 15.2688 22.2094 17.5642 24.9766 17.5642H25.0266C27.8016 17.5642 30.1688 15.2688 30.1688 12.5438C30.1688 15.2688 32.3266 17.5642 35.0938 17.5642C37.8609 17.5642 40.0891 15.2688 40.0891 12.5438C40.0891 15.2688 42.3937 17.5642 45.1594 17.5642C47.4703 17.5642 50.0094 15.1704 50.0094 12.4595V10.311C49.9594 9.01728 45.6719 4.08604 43.4828 2.79229C36.7031 2.54854 32.0078 2.50635 25.0094 2.50635C18.0031 2.51416 8.45781 2.62041 6.52812 2.79229H6.51875ZM19.8078 16.2829C19.5219 16.7642 19.2062 17.1704 18.8312 17.5282V17.536C17.7812 18.5532 16.35 19.1876 14.7703 19.1876C13.1828 19.1876 11.7516 18.5517 10.7094 17.5267C10.3266 17.1595 10.0406 16.7626 9.77188 16.297C9.51094 16.761 9.14688 17.1595 8.76406 17.5267C7.71406 18.5517 6.28281 19.1876 4.70312 19.1876C4.70312 19.1876 4.70312 19.1876 4.69531 19.1876C4.50781 19.1876 4.3125 19.1313 4.15 19.0735C3.93125 21.3938 3.83281 23.6063 3.8 25.2251V25.2329C3.79219 26.0563 3.79219 26.722 3.78281 27.6579C3.83281 32.5251 3.30312 43.422 5.93281 46.1001C10.0016 47.0438 17.4891 47.4751 24.9906 47.4829H24.9984C32.5094 47.4751 39.9875 47.0438 44.0562 46.1001C46.6859 43.4235 46.1562 32.5251 46.2062 27.6579C46.1984 26.722 46.1984 26.0563 46.1891 25.2329V25.2251C46.1562 23.6063 46.0656 21.3938 45.8391 19.0735C45.6844 19.1313 45.4813 19.1876 45.2938 19.1876H45.2859C43.7062 19.1876 42.275 18.5517 41.225 17.5267H41.2328C40.85 17.1595 40.4844 16.7626 40.225 16.297H40.2172C39.9562 16.761 39.6625 17.1595 39.2875 17.5267C38.2453 18.5517 36.8141 19.1876 35.2266 19.1876C33.6469 19.1876 32.2156 18.5517 31.1656 17.5267C30.7906 17.1688 30.4734 16.7532 30.2047 16.297L30.1875 16.272C29.9187 16.7532 29.5938 17.1673 29.2266 17.5267C28.1766 18.5517 26.7453 19.1876 25.1656 19.1876H25.1578C25.1094 19.1876 25.0516 19.1876 24.9953 19.1798C24.9391 19.1876 24.8812 19.1876 24.825 19.1876C24.825 19.1876 24.825 19.1876 24.8172 19.1876C23.2375 19.1876 21.8062 18.5517 20.7656 17.5267C20.3906 17.1688 20.0734 16.7532 19.8141 16.297L19.7969 16.272L19.8078 16.2829ZM15.6328 21.6798C17.2844 21.6876 18.75 21.6798 20.5719 23.6657C22.0031 23.5204 23.5016 23.447 24.9984 23.447C26.4953 23.447 27.9938 23.5204 29.425 23.6657C31.2484 21.6798 32.7125 21.6798 34.3641 21.6798H34.3719C35.1531 21.6798 38.2781 21.6798 40.4516 27.7923L42.7875 36.1813C44.5203 42.4235 42.2328 42.5798 39.3859 42.5798C35.1547 42.4235 32.8109 39.3485 32.8109 36.272C30.4672 36.6642 27.7312 36.8517 24.9984 36.8517C22.2656 36.8517 19.5297 36.6642 17.1938 36.272C17.1938 39.3485 14.85 42.4235 10.6187 42.5798C7.7625 42.572 5.475 42.4235 7.20781 36.1813L9.54375 27.7923C11.725 21.6798 14.85 21.6798 15.6312 21.6798H15.6328ZM25 26.4892C24.9922 26.4892 20.5484 30.5829 19.7437 32.0313L22.6562 31.9173V34.4563C22.6562 34.5798 23.8297 34.5298 25 34.4735C26.1703 34.5298 27.3359 34.5798 27.3359 34.4563V31.9173L30.2563 32.0313C29.4516 30.5829 25 26.4892 25 26.4892Z" fill="#012030"/>
</g>
<defs>
<clipPath id="clip0_23_137">
<rect width="50" height="50" fill="#012030"/>
</clipPath>
</defs>
</svg>
