<svg width="45" height="45" viewBox="0 0 45 45" fill="none" xmlns="http://www.w3.org/2000/svg">
<circle cx="22.5" cy="22.5" r="22.5" fill="#012030"/>
<path fill-rule="evenodd" clip-rule="evenodd" d="M18.8104 11.2348C19.1397 11.4978 19.2847 11.9291 19.1811 12.3376C18.9811 13.1268 18.8745 13.9544 18.8745 14.8084C18.8745 20.3435 23.3616 24.8305 28.8967 24.8305C30.5339 24.8305 32.0765 24.4388 33.4388 23.7448C33.8143 23.5536 34.267 23.5996 34.5963 23.8626C34.9256 24.1256 35.0706 24.5569 34.967 24.9655C33.6312 30.2361 28.8573 34.1368 23.1697 34.1368C16.4486 34.1368 11 28.6882 11 21.9671C11 17.2301 13.7067 13.1271 17.6528 11.117C18.0284 10.9257 18.4811 10.9718 18.8104 11.2348Z" fill="#FCFCFC"/>
</svg>
